<svg id="Layer_1" data-name="Layer 1" xmlns="http://www.w3.org/2000/svg" viewBox="0 0 1665.17 1659.7"><g id="_5E0Z2q" data-name=" 5E0Z2q"><g id="Group_2" data-name="Group 2"><path id="Path_6" data-name="Path 6" d="M1728,1443.8c-30.36,44.56-55.48,94-92,132.84C1463.91,1759.71,1251,1866.13,999,1850.36c-321.12-20.09-574.5-168.51-718-465.78-56.54-117.07-95.08-246.07-92.07-379.07,9.6-425.28,346.92-779.73,758-810.49q379.06-28.38,651,229c140.68,133.4,221.22,300.51,248.5,494.05,20,141.53-.41,275.81-54.72,406.42M317.55,1018.75c2.25,399.94,279.44,701.7,699.54,704.77,423.43,3.1,710-338.82,707.79-710.2-2.35-388-330.48-707.68-719-697.33C624.42,326.15,314.15,628.49,317.55,1018.75Zm481-770.23c262.51-62.79,502.76-11.1,723.31,141.78C1356.65,223.94,1018.63,154.7,798.57,248.52Zm-237.33,1351c158.41,153.54,451.55,205.45,619.59,143.27q-339.57,55.32-619.6-143.27Z" transform="translate(-188.69 -192.2)"/><path id="Path_7" data-name="Path 7" d="M731.57,1228.9q0-230.13.06-460.25c.07-62.6.35-62.58,62.42-62.57,108,0,215.94-1,323.89.24,125.44,1.43,226.23,86.79,238.34,202.14,7.38,70.26-24.49,126.39-74.62,171.64-25,22.59-21.9,36.76,2.47,54.91,77.13,57.45,110.44,135.19,90.21,228.69-20.39,94.27-79.47,159.39-174.47,185a464.24,464.24,0,0,1-111.34,14.64c-104,1.87-208.12-.4-312.16,1.11-29.8.43-41.54-7-41-39M1021.1,1393v-.89c33.75,0,67.77,2.7,101.18-.61,55.65-5.52,81.43-42.57,77.54-105.19-2.92-46.89-34.57-76.51-85-77.2-62.31-.86-124.65.48-187-.52-23.21-.37-32.69,8.25-32.6,31.51.15,40.18-.82,80.39-2.57,120.54-1,22.9,6.94,33.54,31.1,32.66C956.15,1392.06,988.64,1393,1021.1,1393Zm-7.17-345v.54c13,0,26,0,38.94,0,14.27-.08,28.56,0,42.82-.44,50.76-1.38,82-26.87,83.33-67.79,2.5-77-19.17-110-78.53-112.42-58.32-2.4-116.81-.22-175.2-1.18-21.92-.36-30.13,8.62-29.81,30,.61,40.22.32,80.47-.53,120.68-.45,21,7.41,31.38,29.42,30.83,29.85-.73,59.71-.18,89.56-.18Z" transform="translate(-188.69 -192.2)"/><path id="Path_8" data-name="Path 8" d="M1235.14,537.59,850.58,669,810,547.86c42-15.4,85.3-31.52,128.76-47.13,57.23-20.58,114.92-39.87,171.74-61.48,27.24-10.35,47.11-5.91,64,18.07C1191.57,481.63,1210.26,504.84,1235.14,537.59Z" transform="translate(-188.69 -192.2)"/></g></g></svg>