<svg id="Layer_1" data-name="Layer 1" xmlns="http://www.w3.org/2000/svg" viewBox="0 0 1814.12 1533.78"><defs><style>.cls-1{fill:#fff;}.cls-2{fill:#1a1818;}</style></defs><g id="Group_7" data-name="Group 7"><path id="Path_10" data-name="Path 10" class="cls-1" d="M117.4,930.28l1.26,1.4c3-.93,6-1.71,8.89-2.82q54.62-20.77,109.19-41.66c11.14-4.26,11.22-4.36,19.11,4Q288.6,926.08,321.21,961c2.43,2.58,5.12,4.94,7.7,7.41l2-1c-.52-6.45-1.15-12.88-1.55-19.33-1.34-21.53-2.68-43.06-3.8-64.6a33.77,33.77,0,0,1,1.55-8.13c23.93,2.62,531.67,122.48,545.9,128.89-.64,2.61-1.11,5.5-2,8.26-14.45,42.7-28.66,85.46-43.53,128-17.18,49.2-38.94,96.86-59.76,144.84-2.29,7.07-9.43,11.89-17.51,11.83a302.56,302.56,0,0,0-60.86,10.56,544.16,544.16,0,0,0-87.23,30.92,412.28,412.28,0,0,0-74.3,42.43c-2.06,1.5-5.47,2.68-4,6.79,9.74-.58,19.52-1.5,29.33-1.7a563,563,0,0,1,82.5,4.78,635.46,635.46,0,0,1,111,24.37A605,605,0,0,1,869,1469.15,468,468,0,0,1,949.46,1527a325.17,325.17,0,0,1,45.16,49.93c1.82,2.52,3,5.93,7.27,6.91a15.48,15.48,0,0,0,.78-3,293.72,293.72,0,0,0-4.55-58.21,411.35,411.35,0,0,0-26.06-87.54c-9.68-23.35-20.11-46.33-37.32-66.13a14,14,0,0,1-1.57-16.18c1.79-3.87,4.17-7.51,6.05-11.34q42.94-88,77.44-179.11a2121.77,2121.77,0,0,0,69.83-217.51,1669.64,1669.64,0,0,0,40.86-205,44.32,44.32,0,0,1,2.19-7.06c17.28,2.52,34.35,3.25,44,19a36.3,36.3,0,0,0,5.75,6.15c31.15,30.84,69.21,49.47,115.31,52.75,34.63,2.47,68.55-1.65,99.92-15.84,15.87-7.18,29.75-2.59,46.85,1.76-48.8,52.49-97.26,103.22-145.16,154.36-48.23,51.5-96.9,102.65-145.73,154.34,1.87,2.67,3.29,5,5,7.11q20.18,25.59,40.43,51.13,116.55,146.49,233.13,293c5.55,7,5.58,7.08,14.19,2.61,55.75-28.93,111.4-58,167.28-86.72,7.92-3.24,12.67-10.74,11.8-18.62-1.13-36.91-1.62-73.83-2.14-110.75-.39-28.54-.46-57.08-.71-85.63,0-2.55-.27-5.11-.42-7.64-37.16,42-70.3,86.15-106.81,129.85-2.93-5-5-8.37-6.86-11.82q-40.71-76.07-81.4-152.14c-14-26.16-28.3-52.22-42.41-78.34-2.62-4.84-4.84-9.87-7.54-14.67a8.39,8.39,0,0,1,1.67-11.46c2.75-2.58,5.33-5.31,7.91-8L1533,845q75.17-79.24,150.57-158.3c4.15-4.36,8-9,12.37-13.84-2-.41-2.65-.76-3.19-.63-2.86.67-5.68,1.48-8.52,2.21A606.89,606.89,0,0,1,1571,692.75q-31.41,2.18-62.92,1.24A509.94,509.94,0,0,1,1402,680.29c-38.71-9.65-75-24.08-106.46-47.52-29.64-22.11-49.52-49.45-55.23-84.48-.44-4.59-4.4-8.25-9.42-8.72Q1164,524,1097.25,508c-5.92-1.42-8.93.53-12,4.86q-30.95,43.44-62.31,86.62c-7.6,10.54-15.15,21.11-23,31.47-7,9.17-14.41,10.37-24.36,4.06A44.32,44.32,0,0,1,967,627.7Q944,603,921.37,578a34.88,34.88,0,0,0-20.28-11.85c-7.72-1.38-15.28-3.56-22.91-5.38L583.55,490.16c-4.29-1-8.66-1.74-14.07-2.82,1.09,3.66,1.61,6,2.47,8.16q27.34,70.41,54.78,140.78c3.09,7.91,6.5,15.73,9.36,23.7,2.27,4.12.46,9.13-4.05,11.21l-.53.22a52.23,52.23,0,0,1-6.17,2.84L520.1,717.42c-8.28,3.42-16.4,7.14-24.6,10.71,0,.68,0,1.37,0,2l74.88,18.07q37.65,9.07,75.32,18.11c25.42,6.11,50.74,12.59,76.27,18.29,25,5.59,49.64,12.79,76.22,17.4C775.9,741.1,751.05,682.54,730,620.64l209.41,49.13c0,5.44.42,10-.08,14.39-2.51,22.64-4.65,45.32-8,67.85-7.5,49.89-17.68,99.37-29.45,148.56-.89,3.72-2.37,7.31-3.77,11.52-3.6-.7-6.45-1.17-9.24-1.81-47.79-11.06-95.61-22-143.35-33.26q-79.71-18.78-159.29-38Q500.4,818.52,414.58,798c-28.62-6.81-57.35-13.25-86-20-8.75-2.06-9.21-2.78-9.7-10.08-1.09-16.43-2.32-32.87-3.26-49.31-1-18-1.76-35.93-2.76-53.9a32.61,32.61,0,0,0-2.09-6.57c-3,3.94-5.12,6.56-7.06,9.28Q275,707.84,246.26,748.29c-5.95,8.38-6,8.41-16.43,6L116.06,728.14c-3.67-.84-7.42-1.4-13.06-2.44,2.84,3.69,4.32,6,6.15,7.95q38.13,41.28,76.38,82.46c7,7.57,7.13,8,1.26,16.26q-26.65,37.36-53.26,74.78C128.05,914.81,122.74,922.57,117.4,930.28Zm1533.75,203c6-5.77,11.89-11.59,17.92-17.3a947,947,0,0,0,77.85-83.64A740.53,740.53,0,0,0,1848.11,874c17.22-36.77,29.85-75,42.09-113.29a266.36,266.36,0,0,0,11.73-67.32,310,310,0,0,0-5.14-72.56c-11.4-62.06-36.74-121.3-74.41-174a545.35,545.35,0,0,0-98.71-103.76c-52.14-44-114.48-76.66-182.38-95.61a281.76,281.76,0,0,0-123.7-6.18,650.06,650.06,0,0,0-178.52,58.14A614,614,0,0,0,1075.39,414a363,363,0,0,0-73.12,99.84c-6.46,13.47-20.24,15.8-31.49,5.1a71.61,71.61,0,0,1-9.1-11.69c-29.36-42.77-59.55-85-94.84-124a488.37,488.37,0,0,0-55.2-53.9A410.27,410.27,0,0,0,715,272.21c-40.43-17.3-82-30.82-127.4-31.8A410.14,410.14,0,0,0,507.1,245a509.69,509.69,0,0,0-174.87,63.38c-28.65,17.16-56.69,34.89-80.75,57.48a600.74,600.74,0,0,0-82.71,95,455.05,455.05,0,0,0-53.29,97.19A418.27,418.27,0,0,0,89.64,685.82c-.44,8.33.19,8.95,9.18,10.88q47,10.06,94,20.2c10.14,2.19,20.21,4.65,30.17,7,2.54-5.43,2.55-5.43,1-16.12A175.12,175.12,0,0,1,239.74,604a372.92,372.92,0,0,1,32-51.71c34.77-49.75,77.86-92.07,132.81-123.76a286,286,0,0,1,71.11-30.69c41.12-10.66,83.11-11,125.16-7A393.48,393.48,0,0,1,730,427.4c56.2,26.16,104.58,62,149.77,101.66a29.66,29.66,0,0,0,14.46,7.16c8.68,1.65,17.3,3.57,25.94,5.4a26.42,26.42,0,0,1,14.7,8.39c14.39,16,29,31.8,43.64,47.65,1.6,1.73,3.51,3.23,5.65,5.18,3-3.83,5.6-6.91,7.93-10.16q38.34-53.55,76.61-107.14c5.65-7.87,7.1-8.33,17.18-6.11,13.1,2.87,26.26,5.59,39.2,9a22,22,0,0,0,21.48-4.67c57.32-45.87,122.16-78.9,197-94.36a388.59,388.59,0,0,1,76.22-7.57,405.72,405.72,0,0,1,48,3.4A213,213,0,0,1,1541,405.83c40.65,20.66,79.06,44.2,110.11,76.58,40.77,42.52,77.48,87.23,95.89,142.25a11,11,0,0,0,9.22,8.23,65.76,65.76,0,0,1,10.28,3.76,61.9,61.9,0,0,1-6.41,8,19.46,19.46,0,0,0-6.37,16.3c.14,9.87-.71,19.76-1.15,29.63a254.24,254.24,0,0,1-15.4,74.89,797,797,0,0,1-62.43,132.09,905.44,905.44,0,0,1-84.43,120.53,1204.59,1204.59,0,0,1-112.49,118.15c-2.25,2.08-4.11,4.52-6.08,6.71,15.36,28.39,29.67,56.53,46,85.16,15.18-19,29.32-36.7,43.41-54.42,13.92-17.5,27.7-35.08,41.67-52.53s27.09-35.64,43.23-53.83C1650.43,1090.22,1648.45,1111.4,1651.15,1133.24Zm227.19,80c-20.21,65.52-62.6,115.13-119.47,155s-120.18,65-193.6,67.84c1.53,9.26,3.18,17.44,4.19,25.69,1.33,11,2.6,22,3,33.1a32.76,32.76,0,0,1-10.6,24.51,127.94,127.94,0,0,1-43.85,28.52c-50.65,20.74-104.43,28-159.11,30.46a579.31,579.31,0,0,1-108.16-5,594.43,594.43,0,0,1-76-15.24c-11.54-3.23-14.77-12.1-8.13-21.16a33.7,33.7,0,0,1,5.56-6.28c23-18.84,45.83-37.82,69.16-56.29,30.54-24.16,61.5-47.89,92.23-71.86,2.93-2.3,5.5-4.9,8.89-8l-66.08-83c-17.09,13.5-33.34,26.07-49.27,39A1437.5,1437.5,0,0,1,1074,1458c-15.29,9.38-30.86,18.38-46.49,27.29a8.37,8.37,0,0,0-4.82,10.34q4.89,26.55,8.54,53.3a197.78,197.78,0,0,1-1.2,57.38,94.25,94.25,0,0,1-14.41,37.14,46.8,46.8,0,0,0,6.48,3.27c37.58,11.87,74.73,25.14,112.92,35,36.89,9.56,74.87,15.68,112.38,23.28,31.84,6.45,64.28,8.56,96.68,10.43a239.21,239.21,0,0,0,60.67-5.09c29.24-5.86,58.1-11.89,83.48-28.18,26.9-17.28,55.42-32.44,77.59-55.25a21.71,21.71,0,0,1,9.75-5.81c13.29-3.27,20.45-.38,24.46,10.14a81.09,81.09,0,0,1,3.85,13.93c7.46,39.56,14.76,79.15,22.19,118.72a48.64,48.64,0,0,0,2.54,7c2.91-1.72,5.19-2.84,7.18-4.28a808.54,808.54,0,0,0,101-85.7,637.5,637.5,0,0,0,123.44-172.72c30.66-64,47.45-130.64,42.62-201.07a279.58,279.58,0,0,0-20.45-87.6,52.76,52.76,0,0,0-4.05-6.38ZM161.71,945.49a60.8,60.8,0,0,0,3.39,7.11c8.11,12,15.6,24.43,24.66,35.8,16,20.13,32.94,39.7,49.68,59.36A1151.78,1151.78,0,0,0,341.57,1155c43.4,39.37,87.4,78.2,131.21,117.18q25.08,22.32,50.53,44.27c7.35,6.38,15,12.46,23.21,19.24a572.76,572.76,0,0,1,116.3-49.31c-107.07-89.72-211-180-296.73-286.19l-1.68.87v39.85l-2,1.09C318.05,1002.66,280,958.09,239,915.31Zm1375,497c-3.44,1.49-5.83,2.37-8.06,3.53q-27.42,14.21-54.81,28.51c-13.14,6.83-26.24,13.73-39.44,20.44-7,3.56-8.17,3.22-13.2-2.43-.84-.93-1.6-1.91-2.37-2.87q-23.11-28.62-46.24-57.23c-1.91-2.36-4.15-4.49-6.14-6.63-14.66,7.79-141.45,107.65-146.42,115.33a19.33,19.33,0,0,0,3.51,1.36,570.23,570.23,0,0,0,133,9.91,647.7,647.7,0,0,0,86.84-9.79,252.21,252.21,0,0,0,95.38-37.08c6.59-3.67,9.72-10.89,7.65-17.68-2.33-10.56-4-21.24-6.1-31.84C1539.39,1451.68,1538,1447.48,1536.69,1442.46Zm-878.46-18.69a80.7,80.7,0,0,0,6,5.73c41.33,32.41,82.54,64.94,124.14,97.07a525,525,0,0,0,72.12,47A1382.85,1382.85,0,0,0,991,1634.83c2.85,1.17,5.86,2,8.8,3a96.49,96.49,0,0,0-10.84-20.26c-28.43-42.65-65.85-79.73-110.1-109.1a559.85,559.85,0,0,0-138.35-66.13A386,386,0,0,0,658.23,1423.77ZM96.15,761.89l-2.38.72a461,461,0,0,0,30.3,109.33c5.55-7.49,10.39-13.82,15-20.3s9.08-13.2,13.56-19.83a8.29,8.29,0,0,0-1.39-11.47c-2.83-2.91-5.75-5.73-8.52-8.7Q119.39,786.79,96.15,761.89Z" transform="translate(-89.54 -237.18)"/><path id="Path_11" data-name="Path 11" class="cls-2" d="M117.4,930.28c5.36-7.71,10.65-15.47,16.1-23.14q26.58-37.41,53.26-74.78c5.87-8.24,5.79-8.69-1.26-16.26q-38.25-41.18-76.37-82.46c-1.84-2-3.32-4.26-6.16-7.94,5.64,1,9.39,1.59,13.06,2.43q56.9,13.05,113.77,26.16c10.48,2.4,10.48,2.37,16.43-6l57.46-80.89c1.93-2.72,4.05-5.35,7.05-9.27a32,32,0,0,1,2.1,6.57c1,18,1.72,35.93,2.76,53.9.94,16.43,2.17,32.87,3.26,49.31.49,7.3.94,8,9.7,10.08,28.65,6.72,57.37,13.16,86,20Q500.42,818.36,586.2,839c53.09,12.69,106.16,25.46,159.3,38,47.73,11.25,95.55,22.18,143.34,33.26,2.8.65,5.64,1.11,9.25,1.82,1.39-4.21,2.88-7.81,3.77-11.52,11.77-49.2,21.95-98.67,29.45-148.56,3.39-22.53,5.53-45.22,8-67.85.49-4.43.08-8.95.08-14.4L730,620.63c21,61.91,45.86,120.46,68.17,181.41-26.58-4.59-51.2-11.8-76.22-17.39-25.53-5.71-50.85-12.18-76.27-18.3q-37.66-9.06-75.31-18.1l-74.88-18.07c0-.69,0-1.37,0-2.06,8.19-3.58,16.34-7.31,24.6-10.7q52.57-21.66,105.23-43.2a51.45,51.45,0,0,0,6.17-2.83c4.65-1.81,6.81-6.71,4.83-10.95-.07-.16-.16-.32-.24-.48-2.87-8-6.29-15.79-9.36-23.7q-27.44-70.38-54.78-140.78c-.84-2.19-1.38-4.5-2.48-8.16,5.42,1.08,9.79,1.8,14.08,2.82q147.33,35.29,294.63,70.65c7.63,1.83,15.18,4,22.91,5.38A34.91,34.91,0,0,1,921.36,578Q944,603,967,627.68a44,44,0,0,0,8.56,7.33c9.94,6.31,17.37,5.11,24.36-4.06,7.89-10.36,15.44-20.93,23-31.47q31.25-43.26,62.31-86.62c3.08-4.33,6.09-6.28,12-4.86q66.73,16,133.62,31.55c5,.47,9,4.13,9.43,8.72,5.71,35,25.59,62.36,55.23,84.48,31.42,23.46,67.75,37.87,106.46,47.52A510.53,510.53,0,0,0,1508,694q31.48.91,62.93-1.25a607,607,0,0,0,113.29-18.27c2.84-.73,5.66-1.53,8.51-2.21.55-.12,1.22.22,3.2.63-4.37,4.89-8.22,9.48-12.37,13.84Q1608.34,765.89,1533,845q-74.85,78.91-149.46,158c-2.58,2.72-5.16,5.45-7.91,8a8.38,8.38,0,0,0-1.68,11.46c2.7,4.8,4.92,9.83,7.54,14.67,14.12,26.12,28.38,52.18,42.42,78.34q40.78,76,81.4,152.14c1.85,3.44,3.93,6.79,6.86,11.82,36.51-43.7,69.65-87.81,106.81-129.85.14,2.55.38,5.1.42,7.64.24,28.55.31,57.09.71,85.63.52,36.92,1,73.84,2.13,110.75.88,7.88-3.87,15.38-11.79,18.62-55.88,28.72-111.53,57.8-167.28,86.72-8.61,4.47-8.64,4.37-14.19-2.61l-233.13-293q-20.29-25.51-40.43-51.13c-1.68-2.13-3.1-4.42-5-7.11,48.84-51.69,97.51-102.83,145.74-154.34,47.9-51.15,96.36-101.87,145.18-154.38-17.11-4.34-31-8.93-46.85-1.76-31.38,14.19-65.29,18.31-99.92,15.85-46.09-3.28-84.16-21.9-115.31-52.75a36.36,36.36,0,0,1-5.75-6.16c-9.64-15.71-26.71-16.44-44-19a44.12,44.12,0,0,0-2.19,7.07,1670.38,1670.38,0,0,1-40.86,205,2120.1,2120.1,0,0,1-69.83,217.51q-34.5,91.07-77.44,179.13c-1.88,3.82-4.25,7.47-6,11.34a14,14,0,0,0,1.56,16.18c17.21,19.82,27.65,42.81,37.33,66.13a411.9,411.9,0,0,1,26,87.54,293,293,0,0,1,4.55,58.21,15.48,15.48,0,0,1-.78,3c-4.3-1-5.44-4.39-7.26-6.91a325.48,325.48,0,0,0-45.16-49.9A468.11,468.11,0,0,0,869,1469.17a604.87,604.87,0,0,0-122.38-53.8,635.55,635.55,0,0,0-111-24.37,563,563,0,0,0-82.5-4.78c-9.8.2-19.57,1.11-29.33,1.7-1.44-4.12,2-5.3,4-6.79a412.28,412.28,0,0,1,74.3-42.43,543.81,543.81,0,0,1,87.23-30.92,302.44,302.44,0,0,1,60.86-10.56c8.08.06,15.22-4.76,17.51-11.83,20.82-48,42.57-95.64,59.76-144.85,14.87-42.56,29.08-85.32,43.53-128,.94-2.76,1.41-5.65,2.05-8.26-14.22-6.42-522-126.27-545.9-128.89a33.77,33.77,0,0,0-1.55,8.13c1.12,21.53,2.46,43.06,3.8,64.6.42,6.45,1,12.89,1.55,19.33l-2,1c-2.58-2.46-5.28-4.83-7.7-7.41q-32.73-34.85-65.36-69.75c-7.89-8.41-8-8.3-19.11-4q-54.59,20.85-109.19,41.66c-2.89,1.11-5.93,1.89-8.89,2.82Z" transform="translate(-89.54 -237.18)"/><path id="Path_12" data-name="Path 12" class="cls-2" d="M1651.16,1133.24c-2.7-21.84-.71-43-5.09-65.92-16.14,18.19-29.23,36.31-43.23,53.83s-27.75,35-41.67,52.53c-14.09,17.72-28.23,35.39-43.42,54.42-16.37-28.64-30.68-56.78-46-85.16,2-2.19,3.83-4.63,6.09-6.71a1204.64,1204.64,0,0,0,112.48-118.16,904.41,904.41,0,0,0,84.43-120.52,796.67,796.67,0,0,0,62.43-132.1,253.92,253.92,0,0,0,15.4-74.88c.44-9.88,1.29-19.76,1.15-29.63a19.44,19.44,0,0,1,6.37-16.3,63.29,63.29,0,0,0,6.41-8,64.8,64.8,0,0,0-10.28-3.77,11,11,0,0,1-9.22-8.23c-18.41-55-55.12-99.73-95.89-142.25-31-32.38-69.47-55.92-110.1-76.58a213.11,213.11,0,0,0-73.11-20.58,408.17,408.17,0,0,0-48-3.4,389.43,389.43,0,0,0-76.22,7.57c-74.88,15.46-139.71,48.48-197,94.36a22,22,0,0,1-21.48,4.67c-12.93-3.44-26.09-6.15-39.19-9-10.09-2.21-11.55-1.75-17.18,6.12Q1030.34,539,992.1,592.66c-2.33,3.25-4.94,6.34-7.93,10.16-2.14-2-4-3.44-5.65-5.18C963.92,581.8,949.27,566,934.87,550a26.36,26.36,0,0,0-14.69-8.39c-8.64-1.83-17.26-3.75-25.94-5.4A29.66,29.66,0,0,1,879.78,529C834.59,489.36,786.21,453.55,730,427.38A393.29,393.29,0,0,0,600.8,390.76c-42.06-4-84-3.64-125.16,7a286.45,286.45,0,0,0-71.11,30.7c-55,31.69-98,74-132.81,123.76a372.92,372.92,0,0,0-32,51.71A175.12,175.12,0,0,0,224,707.71c1.59,10.7,1.58,10.7-1,16.12-10-2.29-20-4.76-30.17-7q-47-10.17-94-20.2c-9-1.91-9.64-2.54-9.18-10.87a418.55,418.55,0,0,1,25.83-127.75,454.86,454.86,0,0,1,53.3-97.19,599.79,599.79,0,0,1,82.71-95c24.06-22.59,52.1-40.33,80.75-57.49A509.77,509.77,0,0,1,507.12,245a410.24,410.24,0,0,1,80.55-4.59c45.4,1,87,14.5,127.4,31.8a410.21,410.21,0,0,1,96.59,57.09,489.05,489.05,0,0,1,55.19,53.89c35.28,39,65.47,81.23,94.84,124a71.61,71.61,0,0,0,9.1,11.69c11.25,10.7,25,8.37,31.5-5.1A362.63,362.63,0,0,1,1075.41,414a613.85,613.85,0,0,1,163.66-114.47,650.06,650.06,0,0,1,178.52-58.14,281.66,281.66,0,0,1,123.71,6.16c67.9,18.95,130.24,51.63,182.38,95.61a545.28,545.28,0,0,1,98.71,103.75c37.68,52.71,63,111.95,74.42,174a310.59,310.59,0,0,1,5.13,72.57,265.92,265.92,0,0,1-11.73,67.32c-12.24,38.3-24.87,76.51-42.09,113.29a740.07,740.07,0,0,1-101.19,158.25,942.7,942.7,0,0,1-77.85,83.64C1663,1121.65,1657.12,1127.47,1651.16,1133.24Z" transform="translate(-89.54 -237.18)"/><path id="Path_13" data-name="Path 13" class="cls-2" d="M1878.33,1213.21a52.12,52.12,0,0,1,4,6.37,279.38,279.38,0,0,1,20.46,87.61c4.82,70.43-12,137-42.62,201.07A637.48,637.48,0,0,1,1736.78,1681a807.69,807.69,0,0,1-101,85.7c-2,1.45-4.27,2.57-7.18,4.29a48.76,48.76,0,0,1-2.54-7.06c-7.43-39.56-14.73-79.15-22.19-118.71a80.23,80.23,0,0,0-3.86-13.93c-4-10.51-11.16-13.41-24.45-10.14a21.79,21.79,0,0,0-9.76,5.81c-22.16,22.81-50.69,38-77.58,55.25-25.39,16.29-54.24,22.32-83.48,28.18a239.21,239.21,0,0,1-60.67,5.09c-32.4-1.87-64.84-4-96.68-10.43-37.51-7.6-75.49-13.7-112.38-23.28-38.2-9.9-75.35-23.17-112.92-35a46.25,46.25,0,0,1-6.48-3.27,94.23,94.23,0,0,0,14.4-37.14,197.44,197.44,0,0,0,1.21-57.38q-3.63-26.73-8.54-53.3a8.35,8.35,0,0,1,4.82-10.34c15.62-8.91,31.2-17.91,46.48-27.29a1436.7,1436.7,0,0,0,153.21-107.48c15.92-12.9,32.18-25.46,49.27-39l66.08,83c-3.39,3-6,5.67-8.89,7.94-30.73,24-61.69,47.69-92.23,71.87-23.34,18.47-46.18,37.46-69.16,56.28a33.76,33.76,0,0,0-5.56,6.29c-6.65,9-3.41,17.93,8.13,21.15a592.4,592.4,0,0,0,76,15.25,580.16,580.16,0,0,0,108.16,5c54.68-2.45,108.46-9.72,159.1-30.46a128,128,0,0,0,43.86-28.52,32.81,32.81,0,0,0,10.6-24.52c-.45-11-1.72-22.09-3.06-33.09-1-8.25-2.64-16.44-4.19-25.68,73.43-2.89,136.82-28.06,193.6-67.85S1858.13,1278.71,1878.33,1213.21Z" transform="translate(-89.54 -237.18)"/><path id="Path_18" data-name="Path 18" class="cls-2" d="M161.71,945.49,239,915.32c41,42.78,79,87.35,123.37,126.66l2-1.09V1001l1.68-.87c85.71,106.13,189.66,196.49,296.73,286.19a573,573,0,0,0-116.3,49.31c-8.2-6.78-15.85-12.86-23.2-19.23q-25.39-22-50.53-44.27C429,1233.17,385,1194.35,341.56,1155a1150.47,1150.47,0,0,1-102.13-107.21c-16.76-19.66-33.65-39.22-49.68-59.36-9.06-11.38-16.56-23.8-24.66-35.8A60.11,60.11,0,0,1,161.71,945.49Z" transform="translate(-89.54 -237.18)"/><path id="Path_21" data-name="Path 21" class="cls-2" d="M658.23,1423.77a385.48,385.48,0,0,1,82.26,18.58,560,560,0,0,1,138.35,66.13c44.25,29.36,81.67,66.45,110.1,109.1a95.75,95.75,0,0,1,10.83,20.26c-2.93-1-5.94-1.85-8.79-3a1381.68,1381.68,0,0,1-130.53-61.24,524.41,524.41,0,0,1-72.12-47c-41.59-32.13-82.81-64.66-124.14-97.07A76.81,76.81,0,0,1,658.23,1423.77Z" transform="translate(-89.54 -237.18)"/><path id="Path_22" data-name="Path 22" class="cls-2" d="M96.15,761.89l46.55,49.74c2.77,3,5.69,5.8,8.53,8.71a8.29,8.29,0,0,1,1.38,11.46c-4.47,6.64-8.9,13.3-13.55,19.84s-9.45,12.81-15,20.3a461.58,461.58,0,0,1-30.3-109.33Z" transform="translate(-89.54 -237.18)"/></g></svg>