<svg id="Layer_1" data-name="Layer 1" xmlns="http://www.w3.org/2000/svg" viewBox="0 0 1753.31 1171.69"><defs><style>.cls-1{fill:#231f20;}</style></defs><g id="pQkS40"><g id="Group_3" data-name="Group 3"><path id="Path_9" data-name="Path 9" class="cls-1" d="M1361.49,1428.83c59.86,51.05,69.19,79.61,47.79,140.83-3,8.71-5.81,19.42-12.58,25.15-44.87,38-125.86,36.57-173.53-2.51-60.39-49.53-57.76-123.07,15.09-148.38,66.69-23.17,79.47-60.45,72.94-120.72-1.28-11.7,4.27-24.78,5-32.69-57.06,24.54-114.37,54.88-173.53,72.93-157.33,48-308.18,18.76-452.68-52.81-9.67-4.78-21.88-18.86-20.12-25.15,18.34-65.39-33.17-106.79-52.82-158.44-6.92-18.19-13.48-36.09-25.14-67.9,34.67,6.72,54.74,11.08,75.44,15.09C655.24,991.76,547.7,945.61,483.8,998.78c-18.17,15.12-28.31,45.42-30.18,70.42-5.92,79.22,16.81,154.76,47.78,231.37,48.62-5.47,98.16-7.61,128.26,37.72a145.05,145.05,0,0,1,22.63,80.48c-1.93,51.17-71.64,104.21-123.23,100.6-83.66-5.86-95.79-23.68-90.53-145.87-66.85-66.27-133.83-122-186.11-188.61-138.49-176.53-121-419.54,35.21-570.89,78.5-76,176.72-95.17,281.67-85.5,110.51,10.18,212.1,49.18,304.3,95.56,64.7-49.31,121.92-104,188.62-140.83,92.5-51.05,205.92-46.58,284.18,47.78,36.89,44.47,76.37,50.69,133.29,40.24,69.57-12.77,144-14.43,213.77-2.51,148.61,25.37,233.42,232,216.28,349.57-25.33,173.69-121,300.45-256.52,402.38-7.44,5.6-16,12.29-22.63,17.6,38.1,128.75,36.1,137-50.3,161-49.08,13.62-122.42-32.15-135.81-83-9.08-34.51,7.25-61.5,32.7-78,22.68-14.67,52-18.91,85.5-30.17,27.81-90.35,56-186.21,35.21-289.22-9.19-45.52-52.87-69.71-110.65-57.84C1469.59,1121.48,1435.15,1281.67,1361.49,1428.83Z" transform="translate(-158.62 -450.81)"/></g></g></svg>